<svg id="Lager_1" data-name="Lager 1" xmlns="http://www.w3.org/2000/svg" viewBox="0 0 160.9 160.9"><path d="M42.82,29.81a11.41,11.41,0,1,0-.12,2.32,29.2,29.2,0,0,1,11.79,4c7.41,4.58,28,18.07,14.24,80.12-8.16,36.9-10.34,44.22-10.34,44.22h28s-4.55-22.2-5-56.44C83.07,42.1,63.87,32.68,42.82,29.81Zm76.91,51.24a11.43,11.43,0,1,0,11.43,11.43A11.43,11.43,0,0,0,119.73,81.05Zm-24,8.54A11.43,11.43,0,1,0,84.32,78.16,11.43,11.43,0,0,0,95.74,89.59Zm.84,5.12A11.43,11.43,0,1,0,108,106.14,11.43,11.43,0,0,0,96.58,94.71Zm21.19-21.47a11.43,11.43,0,1,0-11.43-11.43A11.42,11.42,0,0,0,117.77,73.24Zm-14-22.73A11.43,11.43,0,1,0,92.34,61.93,11.43,11.43,0,0,0,103.77,50.51ZM103,34A11.43,11.43,0,1,0,114.42,22.6,11.42,11.42,0,0,0,103,34Zm31.24,35.2a6.69,6.69,0,1,0,6.69,6.69A6.7,6.7,0,0,0,134.23,69.23ZM76,13.78a6.69,6.69,0,1,0-6.69-6.69A6.7,6.7,0,0,0,76,13.78ZM52.76,25.91a6.7,6.7,0,1,0-6.69-6.7A6.7,6.7,0,0,0,52.76,25.91ZM39.33,63a6.69,6.69,0,1,0-6.69,6.69A6.68,6.68,0,0,0,39.33,63Zm57.81-36A11.43,11.43,0,1,0,85.71,15.5,11.42,11.42,0,0,0,97.14,26.92ZM75.64,41.51A11.43,11.43,0,1,0,64.21,30.08,11.42,11.42,0,0,0,75.64,41.51ZM51.15,40.44A11.43,11.43,0,1,0,62.58,51.87,11.43,11.43,0,0,0,51.15,40.44ZM47.79,78.09A11.43,11.43,0,1,0,59.22,66.66,11.42,11.42,0,0,0,47.79,78.09ZM33.65,72.81A11.43,11.43,0,1,0,45.08,84.24,11.43,11.43,0,0,0,33.65,72.81Zm32.16,31.92a11.43,11.43,0,1,0-11.43,11.42A11.43,11.43,0,0,0,65.81,104.73Z" style="fill:#1d1d1b"/></svg>