<svg id="Lager_1" data-name="Lager 1" xmlns="http://www.w3.org/2000/svg" viewBox="0 0 1015.04 160.9"><path d="M50.36,29.41a11.41,11.41,0,1,0-.12,2.32,29,29,0,0,1,11.79,4c7.42,4.57,28,18.06,14.25,80.11-8.17,36.9-10.35,44.22-10.35,44.22H93.88s-4.55-22.2-5-56.44C90.61,41.7,71.41,32.29,50.36,29.41Zm76.91,51.24A11.43,11.43,0,1,0,138.7,92.08,11.43,11.43,0,0,0,127.27,80.65Zm-24,8.54A11.43,11.43,0,1,0,91.86,77.76,11.42,11.42,0,0,0,103.29,89.19Zm.83,5.12a11.43,11.43,0,1,0,11.43,11.43A11.43,11.43,0,0,0,104.12,94.31Zm21.19-21.47a11.43,11.43,0,1,0-11.43-11.43A11.43,11.43,0,0,0,125.31,72.84Zm-14-22.73A11.43,11.43,0,1,0,99.88,61.54,11.43,11.43,0,0,0,111.31,50.11Zm-.77-16.48A11.43,11.43,0,1,0,122,22.2,11.43,11.43,0,0,0,110.54,33.63Zm31.23,35.2a6.69,6.69,0,1,0,6.69,6.69A6.7,6.7,0,0,0,141.77,68.83ZM83.51,13.38a6.69,6.69,0,1,0-6.69-6.69A6.7,6.7,0,0,0,83.51,13.38ZM60.3,25.51a6.69,6.69,0,1,0-6.69-6.69A6.7,6.7,0,0,0,60.3,25.51ZM46.88,62.56a6.69,6.69,0,1,0-6.69,6.69A6.69,6.69,0,0,0,46.88,62.56Zm57.8-36A11.43,11.43,0,1,0,93.26,15.1,11.43,11.43,0,0,0,104.68,26.53ZM83.18,41.12A11.43,11.43,0,1,0,71.75,29.69,11.42,11.42,0,0,0,83.18,41.12ZM58.69,40A11.43,11.43,0,1,0,70.12,51.47,11.43,11.43,0,0,0,58.69,40ZM55.33,77.69A11.43,11.43,0,1,0,66.76,66.26,11.43,11.43,0,0,0,55.33,77.69ZM41.19,72.41A11.43,11.43,0,1,0,52.62,83.84,11.43,11.43,0,0,0,41.19,72.41Zm32.16,31.92a11.43,11.43,0,1,0-11.43,11.43A11.43,11.43,0,0,0,73.35,104.33Z" style="fill:#fff"/><path d="M174.8,158.14c-.63-.48-1-.64-1.22-.64s-.53.38-.85.91-.58.63-.95.63-.58-.26-.48-.85c.22-1.32.75-8.05.91-9.59,0-.32.15-.32.37-.32l.79.06c.21,0,.32.1.32.42a10.4,10.4,0,0,0,1.91,6.15,8.84,8.84,0,0,0,7.42,3.92c3.18,0,7.2-2,7.2-6.73,0-5.46-3.92-7.47-8.16-9-1.64-.58-5.46-1.91-7.74-4.29-1.74-1.75-2.65-4.24-2.65-7.74a10,10,0,0,1,3.29-6.78,10.57,10.57,0,0,1,7.42-2.54,15.33,15.33,0,0,1,6.25,1.32c.48.27.75.21,1,0l.69-.64a1,1,0,0,1,.69-.32c.26,0,.42.43.42.91,0,1.85.69,7.26.74,8.42,0,.27-.05.37-.26.42l-.64.16c-.16.06-.26,0-.32-.16a12.86,12.86,0,0,0-3.28-5.88,7.42,7.42,0,0,0-5.78-2.28,6,6,0,0,0-6.41,6.2,6.48,6.48,0,0,0,1.64,4.62,16.92,16.92,0,0,0,6,3.18c3.66,1.16,6.63,2.06,8.54,4.39a10.4,10.4,0,0,1,2.33,7.21c0,6.25-3.82,11.61-10.81,11.61A13.07,13.07,0,0,1,174.8,158.14Z" style="fill:#fff"/><path d="M220.12,154.32h.21l4.29-11.65c.69-1.86.27-2.92-.79-2.92h-.74c-.27,0-.32-.16-.32-.42v-1.12a.34.34,0,0,1,.37-.37c.32,0,1.91.16,4.08.16s3.23-.16,3.87-.16a.34.34,0,0,1,.37.37v1.12c0,.26-.11.42-.37.42h-1.33a2.28,2.28,0,0,0-1.69.9c-.64,1-7.37,17.86-8.06,19.56a.93.93,0,0,1-1,.69c-.37,0-.75-.38-1-1l-5.19-15.1h-.27l-6.51,15.26a1.2,1.2,0,0,1-1.12.85c-.42,0-.69-.43-.9-1.06l-6.94-18.66a2,2,0,0,0-2.23-1.43h-1.16c-.32,0-.37-.16-.37-.48v-1c0-.27,0-.43.32-.43.74,0,1.8.16,4.82.16,2.38,0,3.65-.16,4.45-.16.32,0,.42.11.42.43v1.06c0,.26-.05.42-.42.42h-.48c-.58,0-.95.48-.63,1.43l4.18,14h.21l5.41-12.93a3.25,3.25,0,0,0-.48-1.7,1.57,1.57,0,0,0-1.43-.53h-.79c-.27,0-.37-.11-.37-.37v-1.11c0-.32.16-.43.47-.43s2.12.16,4.77.16c2.44,0,3.61-.16,4-.16s.48.11.48.37v1.11c0,.27-.11.43-.37.43h-1.12c-.53,0-1,.58-.74,1.38Z" style="fill:#fff"/><path d="M234.55,146a13.33,13.33,0,0,0-.16,2.55c0,5.19,3.28,9.11,7.52,9.11a7.19,7.19,0,0,0,6.42-3.6.43.43,0,0,1,.47-.27l.69.38c.16.05.27.21,0,.79-1,2.12-3.71,5.78-8.42,5.78-3,0-6.36-.9-8.32-3.77-1.86-2.7-2.34-4.66-2.34-8.37a11.9,11.9,0,0,1,3.34-8.42c2.28-2.34,4.93-2.81,7.58-2.81,6.09,0,7.79,5.72,7.79,7.79,0,.74-.64.84-1.48.84Zm8.42-1.59c1,0,1.43-.26,1.43-.74,0-1.22-.63-4.71-4.08-4.71-2.33,0-4.55,1.53-5.56,5.45Z" style="fill:#fff"/><path d="M268.32,127.83c0-2-.37-2.65-3.34-3.13-.31,0-.37-.16-.37-.37v-.9c0-.21.11-.32.43-.37,2.06-.43,4.82-.9,5.83-1.11a10.53,10.53,0,0,1,1.22-.16c.26,0,.31.37.26.95-.16,2.65-.21,10.33-.21,17.06v11.72c0,2,.1,4.29.53,4.82a3.94,3.94,0,0,0,2.33.9c.74,0,.95.11,1.06.37l.11.42c.05.32-.06.48-.38.59l-6,2a.51.51,0,0,1-.69-.42l-.69-2.33a12.24,12.24,0,0,1-7.79,2.86,7.34,7.34,0,0,1-6.25-2.44c-2.71-2.65-3.34-5-3.34-8.59a12.62,12.62,0,0,1,3.71-9,10.61,10.61,0,0,1,7.89-3.34,20,20,0,0,1,5.67.79Zm0,16.8a5.32,5.32,0,0,0-.47-2.6c-.75-1.43-2.44-2.86-5.57-2.86a6.51,6.51,0,0,0-4.82,1.91,10.09,10.09,0,0,0-2.44,7c0,6,4.13,10.34,7.21,10.34s5.24-1.54,5.77-2.92a4.85,4.85,0,0,0,.32-1.8Z" style="fill:#fff"/><path d="M280.47,146a14.23,14.23,0,0,0-.16,2.55c0,5.19,3.29,9.11,7.53,9.11a7.17,7.17,0,0,0,6.41-3.6.45.45,0,0,1,.48-.27l.69.38c.15.05.26.21,0,.79-1,2.12-3.71,5.78-8.43,5.78-3,0-6.36-.9-8.32-3.77-1.86-2.7-2.33-4.66-2.33-8.37a11.9,11.9,0,0,1,3.34-8.42,9.78,9.78,0,0,1,7.57-2.81c6.1,0,7.79,5.72,7.79,7.79,0,.74-.63.84-1.48.84Zm8.43-1.59c1,0,1.43-.26,1.43-.74,0-1.22-.64-4.71-4.08-4.71-2.33,0-4.56,1.53-5.57,5.45Z" style="fill:#fff"/><path d="M318.35,157.24c0,.85.48,1.11,1.17,1.11h1.7c.47,0,.58.16.58.48v.85c0,.37-.11.58-.43.58s-2-.16-5-.16c-2.7,0-4.4.16-4.77.16s-.42-.16-.42-.58v-.85c0-.37.16-.48.69-.48h1.53c.59,0,1-.26,1.06-1.22.05-1.37.11-3.07.11-4.45v-7c0-2.12,0-3.66-1.54-4.77a5.77,5.77,0,0,0-3.87-1,6.2,6.2,0,0,0-4.29,2.07,5.2,5.2,0,0,0-1.22,3.6v11c0,1.43.16,1.75,1.27,1.75h1.33c.42,0,.53.16.53.53v.9c0,.32-.11.48-.37.48s-1.8-.16-4.61-.16-4.4.16-4.72.16-.37-.16-.37-.48v-.95c0-.32.11-.48.53-.48h1.54c.68,0,1.06-.16,1.06-1.06v-12.4a3.25,3.25,0,0,0-2.18-3.12l-.42-.22c-.37-.16-.42-.32-.42-.47v-.27c0-.26.21-.42.47-.53l4.56-2.54a2.81,2.81,0,0,1,.95-.37c.27,0,.37.21.43.63l.37,3.23h.1c1.54-1.9,4.61-3.86,7.26-3.86a8.26,8.26,0,0,1,4.51,1.16,7.71,7.71,0,0,1,2.91,5Z" style="fill:#fff"/><path d="M257.72,49.53c3.53-5.23,9.26-8.05,16.1-8.05s12.47,2.92,15.79,8.15c2.22,3.52,2.82,7,2.82,16.8V97.51H277.34V65.32c0-4.72-.3-6.53-1.31-8.34a8.57,8.57,0,0,0-7.44-3.93c-6.94,0-10.16,5.13-10.16,16.1V97.51H243.34V42.69h14.38Z" style="fill:#fff"/><path d="M313.15,49.53c3.52-5.23,9.26-8.05,16.09-8.05s12.48,2.92,15.8,8.15c2.21,3.52,2.81,7,2.81,16.8V97.51H332.77V65.32c0-4.72-.31-6.53-1.31-8.34A8.59,8.59,0,0,0,324,53.05c-6.94,0-10.16,5.13-10.16,16.1V97.51H298.76V42.69h14.39Z" style="fill:#fff"/><path d="M478.15,90.67c-3.62,5.23-9.25,8-16.09,8s-12.48-3-15.8-8.15c-2.21-3.52-2.81-7-2.81-16.8V42.69h15.09V74.88c0,4.73.3,6.54,1.3,8.35a8.39,8.39,0,0,0,7.45,3.92,9.4,9.4,0,0,0,8.14-4.73c1.51-2.41,2-5.43,2-11.36V42.69h15.09V97.51H478.15Z" style="fill:#fff"/><path d="M529,60.19c-.3-5.83-2.81-8.25-8.95-8.25-4.63,0-7.54,2-7.54,5.34,0,2.41,1.81,3.92,5.93,5l10.87,2.81c10.86,2.82,15.78,7.85,15.78,16.1,0,11-9.15,17.9-23.84,17.9-16,0-24.94-7-25.14-19.91h15.39c-.1,5.83,3.22,8.85,9.56,8.85,5,0,8.34-2.11,8.34-5.33,0-3.42-2.71-5.23-10.15-6.84-10.07-2.12-13.69-3.52-17.11-6.64a15,15,0,0,1-4.72-10.67c0-10.76,9.05-17.5,23.33-17.5,14.59,0,23.14,7.14,23,19.11Z" style="fill:#fff"/><path d="M649.57,49.53c3.52-5.23,9.26-8.05,16.1-8.05s12.47,2.92,15.79,8.15c2.21,3.52,2.82,7,2.82,16.8V97.51H669.19V65.32c0-4.72-.31-6.53-1.31-8.34a8.59,8.59,0,0,0-7.45-3.93c-6.94,0-10.15,5.13-10.15,16.1V97.51H635.19V42.69h14.38Z" style="fill:#fff"/><path d="M709.22,42.69h16.4l10.66,41.54,10.86-41.54h16.1L744.63,97.51h-17.3Z" style="fill:#fff"/><path d="M815.9,80.81c-3.42,11.88-12.77,18.31-26.35,18.31-17.1,0-28-11.47-28-29.47,0-17,11.07-28.57,27.46-28.57,16.6,0,27,11.57,27,30,0,.6,0,2-.11,3.62H777.07c.41,8,5.13,12.68,12.78,12.68,5,0,8.45-2.22,10.06-6.55Zm-15.49-17.1c-.2-6.73-4.83-11.26-11.26-11.26-6.85,0-10.87,3.82-12.18,11.26Z" style="fill:#fff"/><path d="M820.63,42.69H835v7.14c2.92-5.43,8.35-8.45,15.19-8.45a10.17,10.17,0,0,1,4,.61V55.06a15,15,0,0,0-4.13-.5c-10.36,0-14.38,5.23-14.38,18.71V97.51H820.63Z" style="fill:#fff"/><path d="M887.35,60.19c-.31-5.83-2.82-8.25-9-8.25-4.62,0-7.54,2-7.54,5.34,0,2.41,1.81,3.92,5.94,5l10.86,2.81c10.86,2.82,15.79,7.85,15.79,16.1,0,11-9.15,17.9-23.84,17.9-16,0-25-7-25.15-19.91h15.39c-.1,5.83,3.22,8.85,9.56,8.85,5,0,8.35-2.11,8.35-5.33,0-3.42-2.72-5.23-10.16-6.84-10.06-2.12-13.68-3.52-17.1-6.64a15,15,0,0,1-4.73-10.67c0-10.76,9-17.5,23.34-17.5,14.59,0,23.13,7.14,23,19.11Z" style="fill:#fff"/><path d="M960.17,54.06h-8.86V78.6c0,5.94,1.62,8.25,5.74,8.25.7,0,1.31-.1,3.12-.3V97.82a24.22,24.22,0,0,1-7.85.9c-6.34,0-10.66-1.91-13.38-6-2.11-3.12-2.71-6.24-2.71-13.48V54.06h-8.05V42.69h8.05V29.41h15.08V42.69h8.86Z" style="fill:#fff"/><path d="M583.14,22.53V65.68c0,7.14,1,11.47,3.22,14.59a14.15,14.15,0,0,0,11.27,5.53,13.93,13.93,0,0,0,11.87-6.54c1.81-2.92,2.61-7.14,2.61-13.58V22.53H628V63.77c0,12.68-1.11,18-5,23.84-5.34,7.75-13.89,11.77-25.35,11.77s-20-3.92-25.36-11.77c-3.92-5.83-5-11.06-5-23.84V22.53Z" style="fill:#fff"/><path d="M378.22,41c9.26,0,14.79,2.72,19,9.26,4.43-6.64,9.46-9.26,17.51-9.26,15.19,0,25.35,11.68,25.35,29,0,1.21,0,2.11-.1,4H402.57c.2,8.65,4.62,14,11.77,14,4.52,0,7.94-2.41,9.75-6.73H440c-4.23,12.17-12.17,17.8-25.15,17.8-9.36,0-14.19-2.62-19.42-10.56C390.19,96,384.16,99.08,374.8,99.08c-13.88,0-22.43-6.74-22.43-17.5,0-11.87,11.16-18.92,29.67-18.61l5.94.09h1.21c-.1-7.64-3.62-11.56-10.47-11.56-5.73,0-8.85,2.71-9.15,7.84H354.18C355.59,47.68,364.34,41,378.22,41Zm5.53,32.1c-10.46,0-16.09,2.71-16.09,7.94,0,4.13,3.52,6.94,8.75,6.94,7.75,0,12.27-5.12,13-14.58C386.87,73.23,384.86,73.13,383.75,73.13Zm41.45-9.46c-.6-7.75-4.63-12.07-11.27-12.07-6.23,0-10.46,4.52-11.16,12.07Z" style="fill:#fff"/><path d="M1015,42.69l-20.72,58c-4.23,12.08-9.86,16.71-20.23,16.71a36,36,0,0,1-9.75-1.31V104.86a20.57,20.57,0,0,0,6.64,1c4.93,0,8.24-2.92,9.45-8.66L961.12,42.69h16.5l10.56,38,10.76-38H1015" style="fill:#fff"/><path d="M171.3,22.37h15.9V83.05h30.14V97.51h-46Z" style="fill:#fff"/><path d="M222.1,42.69h15.09V97.51H222.1Z" style="fill:#fff"/><path d="M237.93,28.73a8.29,8.29,0,1,1-8.29-8.29A8.29,8.29,0,0,1,237.93,28.73Z" style="fill:#fff"/><path d="M690.48,42.69h15.09V97.51H690.48Z" style="fill:#fff"/><path d="M706.31,28.73A8.29,8.29,0,1,1,698,20.44,8.29,8.29,0,0,1,706.31,28.73Z" style="fill:#fff"/><path d="M908,42.69H923.1V97.51H908Z" style="fill:#fff"/><path d="M923.84,28.73a8.29,8.29,0,1,1-8.29-8.29A8.29,8.29,0,0,1,923.84,28.73Z" style="fill:#fff"/></svg>