<?xml version="1.0" standalone="no"?>
<!DOCTYPE svg PUBLIC "-//W3C//DTD SVG 20010904//EN"
 "http://www.w3.org/TR/2001/REC-SVG-20010904/DTD/svg10.dtd">
<svg version="1.0" xmlns="http://www.w3.org/2000/svg"
 width="1024.000000pt" height="1024.000000pt" viewBox="0 0 1024.000000 1024.000000"
 preserveAspectRatio="xMidYMid meet">
<metadata>
Created by potrace 1.14, written by Peter Selinger 2001-2017
</metadata>
<g transform="translate(0.000000,1024.000000) scale(0.100000,-0.100000)"
fill="#000000" stroke="none">
<path d="M4890 9574 c-25 -2 -101 -8 -170 -14 -540 -46 -1101 -205 -1594 -452
-1112 -557 -1947 -1560 -2290 -2753 -122 -425 -170 -772 -170 -1235 0 -308 13
-476 55 -725 193 -1142 796 -2139 1714 -2833 654 -494 1394 -785 2235 -879
215 -24 685 -24 900 0 841 94 1581 385 2235 879 995 752 1611 1845 1752 3108
24 215 24 685 0 900 -94 841 -385 1581 -879 2235 -750 992 -1854 1615 -3098
1750 -137 15 -592 27 -690 19z m-50 -1414 l0 -810 -655 0 -654 0 25 68 c92
246 240 548 369 752 195 307 429 551 664 690 73 43 217 110 239 110 9 0 12
-169 12 -810z m699 759 c152 -71 274 -160 427 -313 148 -148 236 -259 354
-445 123 -194 274 -501 364 -743 l25 -68 -654 0 -655 0 0 811 0 811 28 -7 c15
-3 65 -24 111 -46z m-1930 -218 c-274 -381 -470 -764 -624 -1220 l-43 -126
-506 -3 c-278 -1 -506 1 -506 4 0 3 33 49 72 102 387 516 897 928 1488 1203
69 32 127 58 129 59 2 0 -3 -9 -10 -19z m3238 -88 c543 -268 1027 -670 1391
-1155 39 -53 72 -99 72 -102 0 -3 -228 -5 -506 -4 l-506 3 -57 165 c-134 386
-296 716 -499 1019 -53 79 -103 152 -111 162 -13 18 -12 18 25 3 22 -9 107
-49 191 -91z m-4061 -1840 c-14 -46 -67 -335 -90 -488 -42 -290 -76 -649 -76
-812 l0 -73 -695 0 -695 0 5 43 c43 387 86 598 181 890 45 136 125 341 164
418 l20 39 596 0 c562 0 595 -1 590 -17z m2054 -678 l0 -695 -830 0 -830 0 0
53 c0 254 69 798 151 1185 l32 152 739 0 738 0 0 -695z m2069 543 c47 -225 87
-469 110 -673 21 -189 41 -442 41 -519 l0 -46 -830 0 -830 0 0 695 0 695 738
0 739 0 32 -152z m1751 113 c39 -77 119 -282 164 -418 92 -282 147 -554 180
-880 l5 -53 -694 0 -695 0 0 73 c0 163 -34 522 -76 812 -23 153 -76 442 -90
488 -5 16 28 17 590 17 l596 0 20 -39z m-6040 -1990 c0 -106 26 -430 51 -621
27 -216 93 -598 115 -672 5 -17 -28 -18 -590 -18 l-596 0 -20 39 c-39 77 -119
282 -164 418 -95 292 -138 503 -181 891 l-5 42 695 0 695 0 0 -79z m2220 -616
l0 -695 -738 0 -739 0 -32 153 c-47 224 -87 468 -110 672 -21 189 -41 442 -41
519 l0 46 830 0 830 0 0 -695z m2220 643 c0 -255 -73 -829 -152 -1190 l-32
-148 -738 0 -738 0 0 695 0 695 830 0 830 0 0 -52z m1945 10 c-43 -388 -86
-599 -181 -891 -45 -136 -125 -341 -164 -418 l-20 -39 -596 0 c-562 0 -595 1
-590 18 22 74 88 456 115 672 25 191 51 515 51 621 l0 79 695 0 695 0 -5 -42z
m-6020 -2039 c154 -456 350 -839 624 -1220 17 -24 -73 14 -264 112 -525 268
-988 658 -1343 1131 -39 53 -72 99 -72 102 0 3 228 5 506 4 l506 -3 43 -126z
m1855 -680 l0 -811 -27 7 c-56 13 -199 87 -297 152 -122 81 -347 300 -454 444
-191 257 -378 609 -506 952 l-25 67 654 0 655 0 0 -811z m1844 744 c-237 -635
-592 -1150 -965 -1399 -93 -62 -237 -136 -291 -149 l-28 -7 0 811 0 811 655 0
654 0 -25 -67z m1626 61 c0 -3 -33 -49 -72 -102 -309 -412 -692 -753 -1145
-1023 -108 -64 -347 -186 -437 -223 -37 -16 -38 -15 -25 3 269 376 461 748
609 1178 28 81 52 154 55 161 3 9 114 12 510 12 278 0 505 -3 505 -6z"/>
</g>
</svg>
